<svg width="10" height="18" viewBox="0 0 10 18" fill="none" xmlns="http://www.w3.org/2000/svg">
<path fill-rule="evenodd" clip-rule="evenodd" d="M5.00504 2.52786e-06C3.76508 -0.00124362 2.5689 0.458283 1.6487 1.28938C0.728503 2.12047 0.149939 3.26383 0.0253254 4.49751C-0.0992882 5.73118 0.23894 6.96715 0.97435 7.96548C1.70976 8.9638 2.78988 9.65326 4.00504 9.9V12H1.00504V14H4.00504V18H6.00504V14H9.00504V12H6.00504V9.9C7.21639 9.64908 8.29178 8.95818 9.02353 7.96074C9.75527 6.9633 10.0914 5.73009 9.96712 4.49929C9.8428 3.26848 9.2668 2.12741 8.35037 1.29645C7.43394 0.465497 6.2421 0.00361069 5.00504 2.52786e-06ZM2.00504 5C2.00504 5.79565 2.32111 6.55871 2.88372 7.12132C3.44632 7.68393 4.20939 8 5.00504 8C5.80069 8 6.56375 7.68393 7.12636 7.12132C7.68897 6.55871 8.00504 5.79565 8.00504 5C8.00504 4.20435 7.68897 3.44129 7.12636 2.87868C6.56375 2.31607 5.80069 2 5.00504 2C4.20939 2 3.44632 2.31607 2.88372 2.87868C2.32111 3.44129 2.00504 4.20435 2.00504 5Z" fill="#C4C4C4"/>
</svg>
