<svg width="49" height="49" viewBox="0 0 49 49" fill="none" xmlns="http://www.w3.org/2000/svg">
<ellipse cx="24.2066" cy="24.0882" rx="24.2066" ry="24.0882" fill="#F288BB"/>
<path d="M26.0625 20.7188C26.0625 16.8613 22.8887 13.6875 19.0312 13.6875C15.125 13.6875 12 16.8613 12 20.7188C12 24.0879 14.2949 26.8711 17.4688 27.6035V30.0938H15.7109C15.3691 30.0938 15.125 30.3867 15.125 30.6797V32.6328C15.125 32.9746 15.3691 33.2188 15.7109 33.2188H17.4688V34.9766C17.4688 35.3184 17.7129 35.5625 18.0547 35.5625H20.0078C20.3008 35.5625 20.5938 35.3184 20.5938 34.9766V33.2188H22.3516C22.6445 33.2188 22.9375 32.9746 22.9375 32.6328V30.6797C22.9375 30.3867 22.6445 30.0938 22.3516 30.0938H20.5938V27.6035C23.7188 26.8711 26.0625 24.0879 26.0625 20.7188ZM15.125 20.7188C15.125 18.5703 16.834 16.8125 19.0312 16.8125C21.1797 16.8125 22.9375 18.5703 22.9375 20.7188C22.9375 22.916 21.1797 24.625 19.0312 24.625C16.834 24.625 15.125 22.916 15.125 20.7188ZM31.5312 27.6035C34.6562 26.8711 37 24.0879 37 20.7188C37 16.8613 33.8262 13.6875 29.9688 13.6875C28.3086 13.6875 26.7949 14.2734 25.5742 15.2012C26.2578 16.0312 26.7949 16.959 27.1367 17.9844C27.8691 17.3008 28.8457 16.8125 29.9688 16.8125C32.1172 16.8125 33.875 18.5703 33.875 20.7188C33.875 22.916 32.1172 24.625 29.9688 24.625C28.8457 24.625 27.8691 24.1855 27.1367 23.4531C26.7949 24.5273 26.2578 25.4551 25.5742 26.2852C26.4043 26.9199 27.332 27.3594 28.4062 27.6035V30.0938H26.6484C26.3066 30.0938 26.0625 30.3867 26.0625 30.6797V32.6328C26.0625 32.9746 26.3066 33.2188 26.6484 33.2188H28.4062V34.9766C28.4062 35.3184 28.6504 35.5625 28.9922 35.5625H30.9453C31.2383 35.5625 31.5312 35.3184 31.5312 34.9766V33.2188H33.2891C33.582 33.2188 33.875 32.9746 33.875 32.6328V30.6797C33.875 30.3867 33.582 30.0938 33.2891 30.0938H31.5312V27.6035Z" fill="white"/>
</svg>
