<svg width="15" height="15" viewBox="0 0 15 15" fill="none" xmlns="http://www.w3.org/2000/svg">
<path fill-rule="evenodd" clip-rule="evenodd" d="M7.19362 2L7.19562 0L14.1956 0.00699997L14.1876 7.007L12.1876 7.005L12.1916 3.417L9.14761 6.461C9.8397 7.49163 10.1238 8.7428 9.94468 9.97125C9.76556 11.1997 9.13602 12.3176 8.17845 13.1077C7.22089 13.8978 6.00373 14.3036 4.76362 14.2462C3.5235 14.1888 2.34906 13.6722 1.46862 12.797C0.593872 11.9243 0.0732511 10.7586 0.00716205 9.52476C-0.058927 8.2909 0.334197 7.07627 1.11071 6.11513C1.88723 5.15398 2.99214 4.51441 4.21234 4.31976C5.43254 4.12511 6.6816 4.38916 7.71862 5.061L10.7766 2.004L7.19362 2ZM2.88362 7.14C3.4464 6.57748 4.20961 6.26156 5.00532 6.26175C5.39932 6.26184 5.78944 6.33953 6.15342 6.4904C6.51739 6.64126 6.84808 6.86233 7.12662 7.141C7.40515 7.41966 7.62607 7.75046 7.77676 8.11451C7.92745 8.47855 8.00496 8.86871 8.00487 9.26271C8.00478 9.65671 7.92708 10.0468 7.77622 10.4108C7.62536 10.7748 7.40428 11.1055 7.12562 11.384C6.56127 11.9388 5.80053 12.2482 5.00912 12.2447C4.2177 12.2412 3.45973 11.9251 2.90031 11.3653C2.34089 10.8055 2.02534 10.0473 2.0224 9.25589C2.01946 8.46447 2.32937 7.70396 2.88462 7.14H2.88362Z" fill="#C4C4C4"/>
</svg>
