<svg width="49" height="49" viewBox="0 0 49 49" fill="none" xmlns="http://www.w3.org/2000/svg">
<ellipse cx="24.2066" cy="24.0882" rx="24.2066" ry="24.0882" fill="#00007A"/>
<path d="M28.6016 12.125H24.7441C24.207 12.125 23.9629 12.7598 24.3047 13.1504L25.1348 13.9805L22.7422 16.373C21.668 15.6895 20.3984 15.25 19.0312 15.25C15.125 15.25 12 18.4238 12 22.2812C12 26.1875 15.125 29.3125 19.0312 29.3125C22.8887 29.3125 26.0625 26.1875 26.0625 22.2812C26.0625 20.9141 25.623 19.6445 24.9395 18.5703L27.332 16.1777L28.1621 17.0078C28.2598 17.1055 28.4551 17.1543 28.5527 17.1543C28.8945 17.1543 29.1875 16.959 29.1875 16.5684V12.7109C29.1875 12.418 28.8945 12.125 28.6016 12.125ZM19.0312 26.1875C16.834 26.1875 15.125 24.4785 15.125 22.2812C15.125 20.1328 16.834 18.375 19.0312 18.375C21.1797 18.375 22.9375 20.1328 22.9375 22.2812C22.9375 24.4785 21.1797 26.1875 19.0312 26.1875ZM36.4141 19.9375H32.5566C32.0195 19.9375 31.7754 20.5723 32.1172 20.9629L32.9473 21.793L30.5547 24.1367C29.6758 23.5996 28.6504 23.2578 27.5762 23.1113C27.4785 24.1855 27.1855 25.2109 26.6484 26.1875C26.6973 26.1875 26.7949 26.1875 26.8438 26.1875C28.9922 26.1875 30.75 27.9453 30.75 30.0938C30.75 32.2422 28.9922 34 26.8438 34C24.6465 34 22.9375 32.2422 22.9375 30.0938C22.9375 30.0449 22.9375 29.9961 22.9375 29.9473C21.9609 30.4355 20.8867 30.7773 19.8125 30.875C20.2031 34.3906 23.1816 37.125 26.8438 37.125C30.7012 37.125 33.875 34 33.875 30.0938C33.875 28.7266 33.4355 27.457 32.752 26.3828L35.1445 23.9902L35.9746 24.8203C36.0723 24.918 36.2188 24.9668 36.3652 24.9668C36.707 24.9668 37 24.7715 37 24.3809V20.5234C37 20.2305 36.707 19.9375 36.4141 19.9375Z" fill="white"/>
</svg>
